# xmcd
#
# Track frame offsets:
#	150
#	16203
#	32854
#	50600
#	69537
#	86532
#	103300
#	119599
#	138749
#	155763
#	167897
#	185783
#	201089
#
# Disc length: 2939 seconds
#
# Revision: 1
# Processed by: cddbd v1.5.2PL0 Copyright (c) Steve Scherf et al.
# Submitted via: audiograbber 1.83.01
#
DISCID=c50b790d
DTITLE=La Meute - La Meute
DYEAR=1900
DGENRE=Country
TTITLE0=La Grande Viree (S.Gelinas-S.Gelinas)
TTITLE1=Lucie (S.Gelinas-S.Gelinas)
TTITLE2=St-Rico (S.Gelinas-S.Gelinas)
TTITLE3=Tu Me Manques A Mourir (S.Gelinas-S.Gelinas)
TTITLE4=Au Nom De La Liberte (S.Gelinas-S.Gelinas)
TTITLE5=Dans Mon Pantalon (S.Gelinas-S.Gelinas)
TTITLE6=Mr.Bagpipeman (S.Gelinas-Poirier_Allard_Bouvette_Bordeleau)
TTITLE7=1er Juillet (S.Gelinas-S.Gelinas)
TTITLE8=Le Grand Esprit (S.Gelinas-S.Gelinas)
TTITLE9=Quebec, Quebec (S.Gelinas-S.Gelinas)
TTITLE10=Danse Avec Moi (S.Gelinas-S.Gelinas)
TTITLE11=Guerre De Succession (S.Gelinas-S.Gelinas)
TTITLE12=Une Messe Pour Marie-Rose (S.Gelinas-S.Gelinas)
EXTD=
EXTT0=
EXTT1=
EXTT2=
EXTT3=
EXTT4=
EXTT5=
EXTT6=
EXTT7=
EXTT8=
EXTT9=
EXTT10=
EXTT11=
EXTT12=
PLAYORDER=
